# xmcd CD database file
#
# Track frame offsets:
#	150
#	14823
#	29205
#	43965
#	58786
#	78970
#	100686
#	113021
#	125864
#	140215
#	154886
#	169493
#	183010
#	198211
#	217089
#	229689
#	239708
#	252122
#	266539
#	282287
#	295595
#	308504
#	322349
#	333577
#	346168
#
# Disc length: 4765 seconds
#
# Revision: 8
# Processed by: cddbd v1.5.2PL0 Copyright (c) Steve Scherf et al.
# Submitted via: CDex 1.51
#
DISCID=88129b19
DTITLE=Miles Davis and Charlie Parkert - Les plus grands artistes du Jazz
DYEAR=1900
DGENRE=Jazz
TTITLE0=Bird of Paradise
TTITLE1=Jumping at the woodside
TTITLE2=Salt peanuts
TTITLE3=Stardust
TTITLE4=Summertime
TTITLE5=Stompin' at the Savoy
TTITLE6=Begin the Beguine
TTITLE7=After you've gone
TTITLE8=Bei Mir bist du Schoen
TTITLE9=Flying home
TTITLE10=Blue moon
TTITLE11=Fascinating Rythm
TTITLE12=Night and day
TTITLE13=Moonlight in Vermont
TTITLE14=Lazy River
TTITLE15=It's only a paper moon
TTITLE16=Flamingo
TTITLE17=Don't smoke in bed
TTITLE18=Dans les rues d' antibes
TTITLE19=Embraceable you
TTITLE20=Indian summer
TTITLE21=Singin' in the Rain
TTITLE22=Swing 42
TTITLE23=Half Nelson
TTITLE24=When the Saints go marching in
EXTD=
EXTT0=
EXTT1=
EXTT2=
EXTT3=
EXTT4=
EXTT5=
EXTT6=
EXTT7=
EXTT8=
EXTT9=
EXTT10=
EXTT11=
EXTT12=
EXTT13=
EXTT14=
EXTT15=
EXTT16=
EXTT17=
EXTT18=
EXTT19=
EXTT20=
EXTT21=
EXTT22=
EXTT23=
EXTT24=
PLAYORDER=
